<svg id="visual" viewBox="0 0 900 600" width="900" height="600" xmlns="http://www.w3.org/2000/svg" xmlns:xlink="http://www.w3.org/1999/xlink" version="1.1"><rect x="0" y="0" width="900" height="600" fill="#114450"></rect><defs><linearGradient id="grad1_0" x1="33.3%" y1="0%" x2="100%" y2="100%"><stop offset="20%" stop-color="#114450" stop-opacity="1"></stop><stop offset="80%" stop-color="#114450" stop-opacity="1"></stop></linearGradient></defs><defs><linearGradient id="grad2_0" x1="0%" y1="0%" x2="66.7%" y2="100%"><stop offset="20%" stop-color="#114450" stop-opacity="1"></stop><stop offset="80%" stop-color="#114450" stop-opacity="1"></stop></linearGradient></defs><g transform="translate(900, 0)"><path d="M0 405.6C-38.7 381.5 -77.4 357.3 -109.1 335.7C-140.8 314.1 -165.4 295.1 -205.7 283.2C-246 271.2 -302 266.2 -328.2 238.4C-354.3 210.6 -350.6 160 -358.5 116.5C-366.5 73 -386.1 36.5 -405.6 0L0 0Z" fill="#C1FAFF"></path></g><g transform="translate(0, 600)"><path d="M0 -405.6C47 -408.8 94.1 -411.9 125.3 -385.8C156.6 -359.6 172.1 -304.2 196.3 -270.2C220.5 -236.2 253.4 -223.5 275.1 -199.8C296.8 -176.2 307.3 -141.4 327.2 -106.3C347.1 -71.2 376.3 -35.6 405.6 0L0 0Z" fill="#C1FAFF"></path></g></svg>