<svg id="visual" viewBox="0 0 960 540" width="960" height="540" xmlns="http://www.w3.org/2000/svg" xmlns:xlink="http://www.w3.org/1999/xlink" version="1.1"><g transform="translate(497.97921998744016 281.48103778865107)"><path d="M140 -178.8C164.3 -146.5 155 -86.1 158.4 -32.9C161.8 20.2 177.9 66.1 161.3 91.5C144.7 117 95.4 121.9 49.7 140.2C3.9 158.5 -38.4 190.1 -83.5 190.6C-128.6 191 -176.4 160.3 -194.8 117.7C-213.2 75.1 -202.1 20.7 -191.4 -32.7C-180.7 -86 -170.4 -138.4 -138.5 -169.4C-106.7 -200.5 -53.4 -210.2 2.2 -212.9C57.9 -215.6 115.7 -211.2 140 -178.8" fill="#FFF7D6"></path></g></svg>